<svg xmlns="http://www.w3.org/2000/svg" viewBox="0 0 48 48">
  <rect width="48" height="48" rx="10" fill="#1E293B"/>
  <path d="M34 16h-3.27c.17-.47.27-.97.27-1.5C31 12.01 28.99 10 26.5 10c-1.58 0-2.94.81-3.75 2.02L22 13.01l-.75-1C20.44 10.81 19.08 10 17.5 10 15.01 10 13 12.01 13 14.5c0 .53.1 1.03.27 1.5H10c-1.66 0-2.49 1.34-2.49 3L7.5 33.5c0 1.66 1.34 3 3 3h24c1.66 0 3-1.34 3-3V19c0-1.66-1.34-3-3-3zm-7.5-3c.83 0 1.5.67 1.5 1.5S27.33 16 26.5 16 25 15.33 25 14.5s.67-1.5 1.5-1.5zm-9 0c.83 0 1.5.67 1.5 1.5S18.33 16 17.5 16 16 15.33 16 14.5s.67-1.5 1.5-1.5zM34 33.5H10v-3h24v3zm0-7.5H10V19h7.62L14.5 23.25 16.93 25 20.5 20.14l1.5-2.04 1.5 2.04L27.07 25l2.43-1.75L26.38 19H34v7z" fill="#60A5FA"/>
</svg>
